<mxfile host="app.diagrams.net" agent="Mozilla/5.0 (Windows NT 10.0; Win64; x64) AppleWebKit/537.36 (KHTML, like Gecko) Chrome/129.0.0.0 Safari/537.36" version="24.7.16">
  <diagram name="Page-1" id="kQ6XQZewhbkkca1INFuK">
    <mxGraphModel dx="1267" dy="721" grid="1" gridSize="10" guides="1" tooltips="1" connect="1" arrows="1" fold="1" page="1" pageScale="1" pageWidth="850" pageHeight="1100" math="0" shadow="0">
      <root>
        <mxCell id="0" />
        <mxCell id="1" parent="0" />
        <mxCell id="eOjV8caabk8iHue2lWoh-55" value="" style="edgeStyle=orthogonalEdgeStyle;rounded=0;orthogonalLoop=1;jettySize=auto;html=1;" edge="1" parent="1" target="eOjV8caabk8iHue2lWoh-84">
          <mxGeometry relative="1" as="geometry">
            <mxPoint x="85.00000000000023" y="149.9999999999999" as="sourcePoint" />
          </mxGeometry>
        </mxCell>
        <mxCell id="eOjV8caabk8iHue2lWoh-58" style="edgeStyle=orthogonalEdgeStyle;rounded=0;orthogonalLoop=1;jettySize=auto;html=1;" edge="1" parent="1" target="eOjV8caabk8iHue2lWoh-60" source="eOjV8caabk8iHue2lWoh-86">
          <mxGeometry relative="1" as="geometry">
            <mxPoint x="290" y="325" as="sourcePoint" />
          </mxGeometry>
        </mxCell>
        <mxCell id="eOjV8caabk8iHue2lWoh-59" value="Retrieve&lt;div&gt;Similar&lt;/div&gt;&lt;div&gt;Design&lt;/div&gt;&lt;div&gt;Decision&lt;/div&gt;" style="edgeStyle=orthogonalEdgeStyle;rounded=0;orthogonalLoop=1;jettySize=auto;html=1;" edge="1" parent="1" source="eOjV8caabk8iHue2lWoh-60" target="eOjV8caabk8iHue2lWoh-86">
          <mxGeometry relative="1" as="geometry">
            <mxPoint x="290" y="325" as="targetPoint" />
          </mxGeometry>
        </mxCell>
        <mxCell id="eOjV8caabk8iHue2lWoh-63" value="" style="edgeStyle=orthogonalEdgeStyle;rounded=0;orthogonalLoop=1;jettySize=auto;html=1;" edge="1" parent="1" source="eOjV8caabk8iHue2lWoh-78" target="eOjV8caabk8iHue2lWoh-69">
          <mxGeometry relative="1" as="geometry">
            <Array as="points">
              <mxPoint x="710" y="600" />
              <mxPoint x="710" y="600" />
            </Array>
          </mxGeometry>
        </mxCell>
        <mxCell id="eOjV8caabk8iHue2lWoh-64" value="After&lt;div&gt;Training&lt;/div&gt;" style="edgeStyle=orthogonalEdgeStyle;rounded=0;orthogonalLoop=1;jettySize=auto;html=1;labelPosition=center;verticalLabelPosition=middle;align=center;verticalAlign=middle;" edge="1" parent="1" source="eOjV8caabk8iHue2lWoh-65" target="eOjV8caabk8iHue2lWoh-69">
          <mxGeometry x="-0.3266" y="-7" relative="1" as="geometry">
            <Array as="points">
              <mxPoint x="790" y="83" />
              <mxPoint x="790" y="633" />
            </Array>
            <mxPoint as="offset" />
          </mxGeometry>
        </mxCell>
        <mxCell id="eOjV8caabk8iHue2lWoh-68" value="" style="edgeStyle=orthogonalEdgeStyle;rounded=0;orthogonalLoop=1;jettySize=auto;html=1;exitX=0;exitY=0.5;exitDx=0;exitDy=0;" edge="1" parent="1" source="eOjV8caabk8iHue2lWoh-69" target="eOjV8caabk8iHue2lWoh-106">
          <mxGeometry relative="1" as="geometry">
            <mxPoint x="773.75" y="660" as="sourcePoint" />
            <mxPoint x="770" y="700" as="targetPoint" />
          </mxGeometry>
        </mxCell>
        <mxCell id="eOjV8caabk8iHue2lWoh-69" value="&lt;div&gt;LLM based&lt;/div&gt;Validator" style="html=1;align=center;verticalAlign=middle;dashed=0;whiteSpace=wrap;" vertex="1" parent="1">
          <mxGeometry x="670" y="610" width="70" height="37.5" as="geometry" />
        </mxCell>
        <mxCell id="eOjV8caabk8iHue2lWoh-70" value="Offline" style="shape=umlFrame;whiteSpace=wrap;html=1;pointerEvents=0;recursiveResize=0;container=1;collapsible=0;width=69;dashed=1;fillColor=none;height=30;" vertex="1" parent="1">
          <mxGeometry x="141.25" y="40" width="628.75" height="370" as="geometry" />
        </mxCell>
        <mxCell id="eOjV8caabk8iHue2lWoh-71" value="" style="edgeStyle=orthogonalEdgeStyle;rounded=0;orthogonalLoop=1;jettySize=auto;html=1;" edge="1" parent="eOjV8caabk8iHue2lWoh-70" target="eOjV8caabk8iHue2lWoh-73">
          <mxGeometry relative="1" as="geometry">
            <mxPoint x="372.22160493827164" y="160.08333333333337" as="sourcePoint" />
          </mxGeometry>
        </mxCell>
        <mxCell id="eOjV8caabk8iHue2lWoh-72" value="Base&lt;div&gt;Generative&lt;/div&gt;&lt;div&gt;LLM&lt;/div&gt;" style="html=1;align=center;verticalAlign=middle;dashed=0;whiteSpace=wrap;" vertex="1" parent="eOjV8caabk8iHue2lWoh-70">
          <mxGeometry x="538.75" y="135" width="70" height="50" as="geometry" />
        </mxCell>
        <mxCell id="eOjV8caabk8iHue2lWoh-73" value="&amp;nbsp;Genarative LLM&lt;div&gt;Fine Tuning&lt;/div&gt;" style="rounded=1;whiteSpace=wrap;html=1;absoluteArcSize=1;arcSize=14;strokeWidth=2;" vertex="1" parent="eOjV8caabk8iHue2lWoh-70">
          <mxGeometry x="421.25" y="133.76" width="75" height="52.5" as="geometry" />
        </mxCell>
        <mxCell id="eOjV8caabk8iHue2lWoh-74" value="" style="edgeStyle=orthogonalEdgeStyle;rounded=0;orthogonalLoop=1;jettySize=auto;html=1;" edge="1" parent="eOjV8caabk8iHue2lWoh-70" source="eOjV8caabk8iHue2lWoh-72" target="eOjV8caabk8iHue2lWoh-73">
          <mxGeometry relative="1" as="geometry" />
        </mxCell>
        <mxCell id="eOjV8caabk8iHue2lWoh-96" value="Context" style="edgeStyle=orthogonalEdgeStyle;rounded=0;orthogonalLoop=1;jettySize=auto;html=1;" edge="1" parent="eOjV8caabk8iHue2lWoh-70" source="eOjV8caabk8iHue2lWoh-75" target="eOjV8caabk8iHue2lWoh-60">
          <mxGeometry relative="1" as="geometry" />
        </mxCell>
        <mxCell id="eOjV8caabk8iHue2lWoh-102" style="edgeStyle=orthogonalEdgeStyle;rounded=0;orthogonalLoop=1;jettySize=auto;html=1;entryX=0.5;entryY=1;entryDx=0;entryDy=0;" edge="1" parent="eOjV8caabk8iHue2lWoh-70" source="eOjV8caabk8iHue2lWoh-75" target="eOjV8caabk8iHue2lWoh-65">
          <mxGeometry relative="1" as="geometry">
            <Array as="points">
              <mxPoint x="59" y="110" />
              <mxPoint x="216" y="110" />
            </Array>
          </mxGeometry>
        </mxCell>
        <mxCell id="eOjV8caabk8iHue2lWoh-75" value="Context-&lt;div&gt;Decision&lt;/div&gt;&lt;div&gt;pairs&lt;/div&gt;" style="shape=cylinder3;whiteSpace=wrap;html=1;boundedLbl=1;backgroundOutline=1;size=6.74307250976554;" vertex="1" parent="eOjV8caabk8iHue2lWoh-70">
          <mxGeometry x="28.75" y="126.88" width="60" height="66.25" as="geometry" />
        </mxCell>
        <mxCell id="eOjV8caabk8iHue2lWoh-76" value="Training&lt;div&gt;Data with&lt;/div&gt;&lt;div&gt;Few shot&lt;/div&gt;&lt;div&gt;prompt&lt;/div&gt;" style="shape=cylinder3;whiteSpace=wrap;html=1;boundedLbl=1;backgroundOutline=1;size=6.511596679687557;" vertex="1" parent="eOjV8caabk8iHue2lWoh-70">
          <mxGeometry x="303.75" y="120" width="70" height="80" as="geometry" />
        </mxCell>
        <mxCell id="eOjV8caabk8iHue2lWoh-91" value="" style="edgeStyle=orthogonalEdgeStyle;rounded=0;orthogonalLoop=1;jettySize=auto;html=1;" edge="1" parent="eOjV8caabk8iHue2lWoh-70" source="eOjV8caabk8iHue2lWoh-60" target="eOjV8caabk8iHue2lWoh-76">
          <mxGeometry relative="1" as="geometry" />
        </mxCell>
        <mxCell id="eOjV8caabk8iHue2lWoh-60" value="Prompt&lt;div&gt;Processing&lt;/div&gt;" style="rounded=1;whiteSpace=wrap;html=1;absoluteArcSize=1;arcSize=14;strokeWidth=2;" vertex="1" parent="eOjV8caabk8iHue2lWoh-70">
          <mxGeometry x="178.75" y="137.5" width="75" height="45" as="geometry" />
        </mxCell>
        <mxCell id="eOjV8caabk8iHue2lWoh-65" value="&lt;div&gt;&lt;span style=&quot;background-color: initial;&quot;&gt;Model&lt;/span&gt;&lt;br&gt;&lt;/div&gt;&lt;div&gt;Training&lt;/div&gt;" style="rounded=1;whiteSpace=wrap;html=1;absoluteArcSize=1;arcSize=14;strokeWidth=2;" vertex="1" parent="eOjV8caabk8iHue2lWoh-70">
          <mxGeometry x="178.75" y="40" width="75" height="45" as="geometry" />
        </mxCell>
        <mxCell id="eOjV8caabk8iHue2lWoh-101" value="" style="edgeStyle=orthogonalEdgeStyle;rounded=0;orthogonalLoop=1;jettySize=auto;html=1;" edge="1" parent="eOjV8caabk8iHue2lWoh-70" source="eOjV8caabk8iHue2lWoh-67" target="eOjV8caabk8iHue2lWoh-65">
          <mxGeometry relative="1" as="geometry" />
        </mxCell>
        <mxCell id="eOjV8caabk8iHue2lWoh-67" value="&lt;div&gt;Encoder&lt;/div&gt;&lt;div&gt;LLM&lt;/div&gt;" style="html=1;align=center;verticalAlign=middle;dashed=0;whiteSpace=wrap;" vertex="1" parent="eOjV8caabk8iHue2lWoh-70">
          <mxGeometry x="38.75" y="48.75" width="60" height="27.5" as="geometry" />
        </mxCell>
        <mxCell id="eOjV8caabk8iHue2lWoh-77" value="&lt;div&gt;Online&lt;/div&gt;" style="shape=umlFrame;whiteSpace=wrap;html=1;pointerEvents=0;recursiveResize=0;container=1;collapsible=0;width=74;dashed=1;fillColor=none;height=30;" vertex="1" parent="1">
          <mxGeometry x="216.25" y="480" width="553.75" height="190" as="geometry" />
        </mxCell>
        <mxCell id="eOjV8caabk8iHue2lWoh-78" value="Generated&lt;div&gt;Design&lt;/div&gt;&lt;div&gt;Decision&lt;/div&gt;" style="text;html=1;align=center;verticalAlign=middle;resizable=0;points=[];autosize=1;strokeColor=none;fillColor=none;" vertex="1" parent="eOjV8caabk8iHue2lWoh-77">
          <mxGeometry x="453.75" y="25" width="80" height="60" as="geometry" />
        </mxCell>
        <mxCell id="eOjV8caabk8iHue2lWoh-79" value="&lt;div&gt;Fine-Tuned&lt;/div&gt;&lt;div&gt;Generative&lt;/div&gt;&lt;div&gt;LLM&lt;/div&gt;" style="html=1;align=center;verticalAlign=middle;dashed=0;whiteSpace=wrap;" vertex="1" parent="eOjV8caabk8iHue2lWoh-77">
          <mxGeometry x="348.75" y="30" width="70" height="50" as="geometry" />
        </mxCell>
        <mxCell id="eOjV8caabk8iHue2lWoh-80" value="" style="edgeStyle=orthogonalEdgeStyle;rounded=0;orthogonalLoop=1;jettySize=auto;html=1;" edge="1" parent="eOjV8caabk8iHue2lWoh-77" source="eOjV8caabk8iHue2lWoh-79" target="eOjV8caabk8iHue2lWoh-78">
          <mxGeometry relative="1" as="geometry" />
        </mxCell>
        <mxCell id="eOjV8caabk8iHue2lWoh-95" value="" style="edgeStyle=orthogonalEdgeStyle;rounded=0;orthogonalLoop=1;jettySize=auto;html=1;" edge="1" parent="eOjV8caabk8iHue2lWoh-77" source="eOjV8caabk8iHue2lWoh-81" target="eOjV8caabk8iHue2lWoh-89">
          <mxGeometry relative="1" as="geometry" />
        </mxCell>
        <mxCell id="eOjV8caabk8iHue2lWoh-81" value="&lt;div&gt;Context&lt;/div&gt;" style="text;html=1;align=center;verticalAlign=middle;resizable=0;points=[];autosize=1;strokeColor=none;fillColor=none;" vertex="1" parent="eOjV8caabk8iHue2lWoh-77">
          <mxGeometry x="15" y="42.5" width="60" height="30" as="geometry" />
        </mxCell>
        <mxCell id="eOjV8caabk8iHue2lWoh-89" value="Prompt&lt;div&gt;Processing&lt;/div&gt;" style="rounded=1;whiteSpace=wrap;html=1;absoluteArcSize=1;arcSize=14;strokeWidth=2;" vertex="1" parent="eOjV8caabk8iHue2lWoh-77">
          <mxGeometry x="103.75" y="35" width="75" height="45" as="geometry" />
        </mxCell>
        <mxCell id="eOjV8caabk8iHue2lWoh-61" value="Few Shot&lt;div&gt;Prompt&lt;/div&gt;" style="edgeStyle=orthogonalEdgeStyle;rounded=0;orthogonalLoop=1;jettySize=auto;html=1;exitX=1;exitY=0.5;exitDx=0;exitDy=0;labelPosition=center;verticalLabelPosition=middle;align=center;verticalAlign=middle;" edge="1" parent="eOjV8caabk8iHue2lWoh-77" source="eOjV8caabk8iHue2lWoh-89" target="eOjV8caabk8iHue2lWoh-79">
          <mxGeometry relative="1" as="geometry">
            <mxPoint x="185" y="-140" as="sourcePoint" />
            <Array as="points">
              <mxPoint x="240" y="55" />
              <mxPoint x="240" y="55" />
            </Array>
          </mxGeometry>
        </mxCell>
        <mxCell id="eOjV8caabk8iHue2lWoh-83" value="" style="edgeStyle=orthogonalEdgeStyle;rounded=0;orthogonalLoop=1;jettySize=auto;html=1;entryX=0;entryY=0.5;entryDx=0;entryDy=0;entryPerimeter=0;" edge="1" parent="1" source="eOjV8caabk8iHue2lWoh-84" target="eOjV8caabk8iHue2lWoh-75">
          <mxGeometry relative="1" as="geometry">
            <mxPoint x="165" y="203" as="targetPoint" />
          </mxGeometry>
        </mxCell>
        <mxCell id="eOjV8caabk8iHue2lWoh-84" value="Data&lt;div&gt;Cleaning&lt;/div&gt;" style="rounded=1;whiteSpace=wrap;html=1;absoluteArcSize=1;arcSize=14;strokeWidth=2;" vertex="1" parent="1">
          <mxGeometry x="55" y="180.94000000000005" width="60" height="38.13" as="geometry" />
        </mxCell>
        <mxCell id="eOjV8caabk8iHue2lWoh-85" value="After&lt;div&gt;Fine&lt;/div&gt;&lt;div&gt;Tuning&lt;/div&gt;" style="edgeStyle=orthogonalEdgeStyle;rounded=0;orthogonalLoop=1;jettySize=auto;html=1;entryX=0.5;entryY=0;entryDx=0;entryDy=0;" edge="1" parent="1" source="eOjV8caabk8iHue2lWoh-73" target="eOjV8caabk8iHue2lWoh-79">
          <mxGeometry relative="1" as="geometry" />
        </mxCell>
        <mxCell id="eOjV8caabk8iHue2lWoh-87" value="Dataset of&lt;div&gt;Architecture&lt;/div&gt;&lt;div&gt;Decision&lt;/div&gt;&lt;div&gt;Records&lt;/div&gt;" style="shape=cylinder3;whiteSpace=wrap;html=1;boundedLbl=1;backgroundOutline=1;size=6.5116093953451255;" vertex="1" parent="1">
          <mxGeometry x="40" y="80" width="90" height="70" as="geometry" />
        </mxCell>
        <mxCell id="eOjV8caabk8iHue2lWoh-93" style="edgeStyle=orthogonalEdgeStyle;rounded=0;orthogonalLoop=1;jettySize=auto;html=1;entryX=0.5;entryY=0;entryDx=0;entryDy=0;" edge="1" parent="1" source="eOjV8caabk8iHue2lWoh-86" target="eOjV8caabk8iHue2lWoh-89">
          <mxGeometry relative="1" as="geometry" />
        </mxCell>
        <mxCell id="eOjV8caabk8iHue2lWoh-86" value="Previous&lt;div&gt;Design&lt;/div&gt;&lt;div&gt;Decision&lt;/div&gt;" style="shape=cylinder3;whiteSpace=wrap;html=1;boundedLbl=1;backgroundOutline=1;size=8.363479614257756;" vertex="1" parent="1">
          <mxGeometry x="315" y="330" width="85" height="65" as="geometry" />
        </mxCell>
        <mxCell id="eOjV8caabk8iHue2lWoh-92" value="Retrieve&lt;div style=&quot;background-color: rgb(251, 251, 251);&quot;&gt;Similar&lt;/div&gt;&lt;div style=&quot;background-color: rgb(251, 251, 251);&quot;&gt;Design&lt;/div&gt;&lt;div style=&quot;background-color: rgb(251, 251, 251);&quot;&gt;Decision&lt;/div&gt;" style="edgeStyle=orthogonalEdgeStyle;rounded=0;orthogonalLoop=1;jettySize=auto;html=1;" edge="1" parent="1" source="eOjV8caabk8iHue2lWoh-89" target="eOjV8caabk8iHue2lWoh-86">
          <mxGeometry relative="1" as="geometry" />
        </mxCell>
        <mxCell id="eOjV8caabk8iHue2lWoh-100" value="" style="edgeStyle=orthogonalEdgeStyle;rounded=0;orthogonalLoop=1;jettySize=auto;html=1;" edge="1" parent="1" source="eOjV8caabk8iHue2lWoh-98" target="eOjV8caabk8iHue2lWoh-86">
          <mxGeometry relative="1" as="geometry" />
        </mxCell>
        <mxCell id="eOjV8caabk8iHue2lWoh-98" value="Indexing" style="rounded=1;whiteSpace=wrap;html=1;absoluteArcSize=1;arcSize=14;strokeWidth=2;" vertex="1" parent="1">
          <mxGeometry x="170" y="343.43000000000006" width="60" height="38.13" as="geometry" />
        </mxCell>
        <mxCell id="eOjV8caabk8iHue2lWoh-99" value="" style="edgeStyle=orthogonalEdgeStyle;rounded=0;orthogonalLoop=1;jettySize=auto;html=1;" edge="1" parent="1" source="eOjV8caabk8iHue2lWoh-75" target="eOjV8caabk8iHue2lWoh-98">
          <mxGeometry relative="1" as="geometry" />
        </mxCell>
        <mxCell id="eOjV8caabk8iHue2lWoh-104" value="" style="edgeStyle=orthogonalEdgeStyle;rounded=0;orthogonalLoop=1;jettySize=auto;html=1;" edge="1" parent="1" source="eOjV8caabk8iHue2lWoh-103" target="eOjV8caabk8iHue2lWoh-98">
          <mxGeometry relative="1" as="geometry" />
        </mxCell>
        <mxCell id="eOjV8caabk8iHue2lWoh-103" value="&lt;div&gt;Encoder&lt;/div&gt;&lt;div&gt;LLM&lt;/div&gt;" style="html=1;align=center;verticalAlign=middle;dashed=0;whiteSpace=wrap;" vertex="1" parent="1">
          <mxGeometry x="55" y="348.75" width="60" height="27.5" as="geometry" />
        </mxCell>
        <mxCell id="eOjV8caabk8iHue2lWoh-106" value="Final&lt;div&gt;Design&lt;div&gt;Decision&lt;/div&gt;&lt;/div&gt;" style="text;html=1;align=center;verticalAlign=middle;resizable=0;points=[];autosize=1;strokeColor=none;fillColor=none;" vertex="1" parent="1">
          <mxGeometry x="560" y="598.75" width="70" height="60" as="geometry" />
        </mxCell>
      </root>
    </mxGraphModel>
  </diagram>
</mxfile>
